<?xml version="1.0" encoding="UTF-8" standalone="no"?>
<!DOCTYPE svg PUBLIC "-//W3C//DTD SVG 1.1//EN" "http://www.w3.org/Graphics/SVG/1.1/DTD/svg11.dtd">
<svg width="100%" height="100%" viewBox="0 0 825 835" version="1.1" xmlns="http://www.w3.org/2000/svg" xmlns:xlink="http://www.w3.org/1999/xlink" xml:space="preserve" xmlns:serif="http://www.serif.com/" style="fill-rule:evenodd;clip-rule:evenodd;stroke-linecap:round;stroke-linejoin:round;stroke-miterlimit:1.5;"><g><path d="M812.5,429.217l-79.167,-229.166l-66.666,225m-166.667,-254.167l56.25,-131.199l-247.917,6.148l-114.583,29.218l-89.583,95.833l112.5,79.167l91.666,-204.218l-204.166,125.051l204.166,-125.051l120.834,-39.558l127.083,33.41l120.833,54.116l56.25,106.25l-177.083,-160.366l-247.917,6.148l191.667,125.051Zm233.333,29.167l-233.333,-29.167l166.667,254.167l145.833,4.166l-10.417,139.584l-85.416,81.25l-50,-225l-185.417,227.083l-66.667,-243.75l-210.416,139.583l277.083,104.167l235.417,-2.083l-191.667,147.916l125,-37.5l152.083,-191.666l10.417,-139.584l-95.833,220.834l-235.417,2.083l-200,114.583l243.75,31.25l-118.75,33.334l-125,-64.584l-116.667,-27.083l241.667,91.667l-125,-64.584l-77.083,-218.75l-112.5,87.5l72.916,104.167l116.667,27.083l-189.583,-131.25l-85.417,-110.416l33.333,-127.058l-10.416,-120.884l-22.917,247.942l33.333,-127.058l52.084,237.474l112.5,-87.5l-164.584,-149.974l64.584,-227.109l-75,106.225l10.416,120.884l177.084,-147.942l-12.5,297.916l277.083,104.167l43.75,145.833l-43.75,-145.833l-66.667,-243.75l-197.916,-158.333l283.333,-79.167l-85.417,237.5l252.084,16.667l145.833,4.166l6.25,-125l-141.667,-210.391l141.667,210.391l-85.417,-104.166Z" style="fill:none;stroke:#fff;stroke-width:6.25px;"/><g><ellipse cx="308.333" cy="45.833" rx="12.5" ry="12.551" style="fill:#fff;"/><ellipse cx="556.25" cy="39.685" rx="10.417" ry="10.459" style="fill:#fff;"/><ellipse cx="216.667" cy="250.101" rx="12.5" ry="12.551" style="fill:#fff;"/><ellipse cx="812.5" cy="429.268" rx="12.5" ry="12.551" style="fill:#fff;"/><ellipse cx="481.25" cy="652.083" rx="12.5" ry="12.551" style="fill:#fff;"/><ellipse cx="91.667" cy="635.467" rx="12.5" ry="12.551" style="fill:#fff;"/><ellipse cx="525" cy="797.9" rx="20.833" ry="20.918" style="fill:#fff;"/><ellipse cx="414.583" cy="408.468" rx="20.833" ry="20.918" style="fill:#fff;"/><ellipse cx="666.667" cy="424.966" rx="20.833" ry="20.918" style="fill:#fff;"/><ellipse cx="429.167" cy="6.275" rx="6.25" ry="6.275" style="fill:#fff;"/><ellipse cx="193.75" cy="75.051" rx="6.25" ry="6.275" style="fill:#fff;"/><ellipse cx="104.167" cy="170.884" rx="6.25" ry="6.275" style="fill:#fff;"/><ellipse cx="29.167" cy="277.109" rx="6.25" ry="6.275" style="fill:#fff;"/><ellipse cx="39.583" cy="397.993" rx="6.25" ry="6.275" style="fill:#fff;"/><ellipse cx="6.25" cy="525.051" rx="6.25" ry="6.275" style="fill:#fff;"/><ellipse cx="204.167" cy="547.942" rx="6.25" ry="6.275" style="fill:#fff;"/><ellipse cx="281.25" cy="766.717" rx="6.25" ry="6.275" style="fill:#fff;"/><ellipse cx="650" cy="760.442" rx="6.25" ry="6.275" style="fill:#fff;"/><ellipse cx="716.667" cy="650.025" rx="6.25" ry="6.275" style="fill:#fff;"/><ellipse cx="802.083" cy="568.826" rx="6.25" ry="6.275" style="fill:#fff;"/><ellipse cx="164.583" cy="739.609" rx="6.25" ry="6.275" style="fill:#fff;"/><ellipse cx="500" cy="170.884" rx="6.25" ry="6.275" style="fill:#fff;"/><ellipse cx="677.083" cy="93.826" rx="6.25" ry="6.275" style="fill:#fff;"/><ellipse cx="733.333" cy="200.025" rx="6.25" ry="6.275" style="fill:#fff;"/><ellipse cx="818.75" cy="304.192" rx="6.25" ry="6.275" style="fill:#fff;"/></g></g></svg>